# xmcd
#
# Track frame offsets: 
#        150
#        15462
#        30545
#        45922
#        60655
#        72567
#        92687
#        106082
#        128042
#        147517
#        164772
#
# Disc length: 2469 seconds
#
# Revision: 0
# Processed by: cddbd v1.5.2PL0 Copyright (c) Steve Scherf et al.
# Submitted via: ExactAudioCopy v0.99pb5
#
DISCID=9009a30b
DTITLE=Conny van den Bos - De Mooiste Dag
DYEAR=1987
DGENRE=Easy Listening
TTITLE0=De mooiste dag
TTITLE1=Migraine
TTITLE2=Nooit meer
TTITLE3=Hotel
TTITLE4=Krokodil
TTITLE5=Wat is nou geluk
TTITLE6=Vakantiekolder
TTITLE7=Lege kamer
TTITLE8=Binnenbrand
TTITLE9=Op goed geluk
TTITLE10=Wat ben ik blij dat er liefde bestaat
EXTD=
EXTT0=
EXTT1=
EXTT2=
EXTT3=
EXTT4=
EXTT5=
EXTT6=
EXTT7=
EXTT8=
EXTT9=
EXTT10=
PLAYORDER=
